<svg xmlns="http://www.w3.org/2000/svg" width="28.47" height="33.715" viewBox="0 0 28.47 33.715">
  <path id="security-user-female" d="M19.271,2a1.124,1.124,0,0,0-.787.288S12.859,7.244,6.124,7.244A1.124,1.124,0,0,0,5,8.368v9.185c0,5,2.315,13.236,13.8,18.073a1.124,1.124,0,0,0,.872,0c11.484-4.837,13.8-13.07,13.8-18.073V8.368a1.124,1.124,0,0,0-1.124-1.124c-6.736,0-12.361-4.956-12.361-4.956A1.124,1.124,0,0,0,19.271,2Zm-.037,2.568A22.511,22.511,0,0,0,31.222,9.4v8.155a14.962,14.962,0,0,1-3,9.093v-.3a3.388,3.388,0,0,0-3.371-3.371H13.616a3.388,3.388,0,0,0-3.371,3.371v.3a14.962,14.962,0,0,1-3-9.093V9.4A22.511,22.511,0,0,0,19.235,4.568Zm.038,6.422a5.244,5.244,0,1,0,0,10.489,9.4,9.4,0,0,0,5.392-2.286,21.824,21.824,0,0,0,2.485-2.186,1.124,1.124,0,0,0,0-1.545,21.824,21.824,0,0,0-2.485-2.186A9.4,9.4,0,0,0,19.273,10.99Zm0,2.248a8.265,8.265,0,0,1,4.042,1.835,10.352,10.352,0,0,1,1.323,1.162A10.352,10.352,0,0,1,23.315,17.4a8.265,8.265,0,0,1-4.042,1.835,3,3,0,1,1,0-5.994ZM13.616,25.225H24.854a1.121,1.121,0,0,1,1.124,1.124v2.744a24.643,24.643,0,0,1-6.743,4.244,24.643,24.643,0,0,1-6.743-4.244V26.349A1.121,1.121,0,0,1,13.616,25.225Z" transform="translate(-5 -1.999)" fill="#fff"/>
</svg>
