<svg xmlns="http://www.w3.org/2000/svg" width="37.039" height="25.999" viewBox="0 0 37.039 25.999">
  <path id="Subtraction_1" data-name="Subtraction 1" d="M-324.98-8756a7.57,7.57,0,0,1-5.6-2.323,8.415,8.415,0,0,1-2.277-5.078l-.007-.091-.04-.081a1,1,0,0,1,.09-1l.022-.033,6.2-12.39h-5l-.115.344a3.809,3.809,0,0,1-.774,1.382,3.976,3.976,0,0,1-3,1.274,3.979,3.979,0,0,1-3-1.274,3.808,3.808,0,0,1-.774-1.382l-.115-.344h-5l6.192,12.385.024.031a1.011,1.011,0,0,1,.093,1l-.04.082-.007.09a8.4,8.4,0,0,1-2.275,5.083A7.563,7.563,0,0,1-345.98-8756a7.57,7.57,0,0,1-5.6-2.323,8.415,8.415,0,0,1-2.277-5.078l-.007-.091-.04-.081a1,1,0,0,1,.09-1l.022-.033,6.829-13.655.013-.035a1,1,0,0,1,.877-.694.531.531,0,0,1,.088,0h6.622l.115-.344a3.809,3.809,0,0,1,.774-1.382,3.979,3.979,0,0,1,3-1.274,3.976,3.976,0,0,1,3,1.274,3.811,3.811,0,0,1,.774,1.382l.115.344h6.626c.032,0,.065,0,.1.007a.991.991,0,0,1,.86.692l.013.037,6.824,13.648.022.031a1.006,1.006,0,0,1,.093,1l-.037.082-.009.09a8.4,8.4,0,0,1-2.275,5.083A7.564,7.564,0,0,1-324.98-8756Zm-5.89-7,.172.63a6.03,6.03,0,0,0,1.876,3.031A5.818,5.818,0,0,0-324.98-8758a5.83,5.83,0,0,0,3.844-1.338,6.042,6.042,0,0,0,1.876-3.031l.172-.63H-330.87Zm-21,0,.174.63a6.03,6.03,0,0,0,1.876,3.031A5.819,5.819,0,0,0-345.98-8758a5.818,5.818,0,0,0,3.842-1.338,6.028,6.028,0,0,0,1.876-3.031l.174-.63h-11.784Zm26.892-12.765L-330.363-8765H-319.6l-5.383-10.763Zm-21,0L-351.363-8765H-340.6l-5.383-10.763Zm10.5-4.236a1.822,1.822,0,0,0-1.5.6,2.138,2.138,0,0,0-.478,1.327v.1l0,.021v.022a2.127,2.127,0,0,0,.48,1.329,1.822,1.822,0,0,0,1.5.6,1.819,1.819,0,0,0,1.5-.6,2.132,2.132,0,0,0,.478-1.327v-.026c0-.021,0-.046,0-.07v-.044a2.126,2.126,0,0,0-.481-1.329A1.819,1.819,0,0,0-335.479-8780Z" transform="translate(354 8782)" fill="#fff"/>
</svg>
