<svg xmlns="http://www.w3.org/2000/svg" width="20.228" height="26.55" viewBox="0 0 20.228 26.55">
  <path id="password" d="M14.114,1A7.506,7.506,0,0,0,6.529,8.586V9.85A2.536,2.536,0,0,0,4,12.378V25.021A2.536,2.536,0,0,0,6.529,27.55H21.7a2.536,2.536,0,0,0,2.529-2.529V12.378A2.536,2.536,0,0,0,21.7,9.85V8.586A7.506,7.506,0,0,0,14.114,1Zm0,2.529a5,5,0,0,1,5.057,5.057V9.85H9.057V8.586A5,5,0,0,1,14.114,3.529Zm-7.586,8.85H21.7V25.021H6.529Zm2.529,5.057A1.264,1.264,0,1,0,10.321,18.7,1.264,1.264,0,0,0,9.057,17.436Zm5.057,0A1.264,1.264,0,1,0,15.378,18.7,1.264,1.264,0,0,0,14.114,17.436Zm5.057,0A1.264,1.264,0,1,0,20.436,18.7,1.264,1.264,0,0,0,19.171,17.436Z" transform="translate(-4 -1)" fill="#fff"/>
</svg>
