<?xml version="1.0" encoding="utf-8"?>
<!-- Generator: Adobe Illustrator 25.0.0, SVG Export Plug-In . SVG Version: 6.00 Build 0)  -->
<svg version="1.1" id="Layer_4" xmlns="http://www.w3.org/2000/svg" xmlns:xlink="http://www.w3.org/1999/xlink" x="0px" y="0px"
	 viewBox="0 0 1799.4 339.8" style="enable-background:new 0 0 1799.4 339.8;" xml:space="preserve">
<style type="text/css">
	.st0{clip-path:url(#SVGID_2_);}
	.st1{fill:url(#SVGID_3_);}
	.st2{fill:#FFFFFF;}
	.st3{clip-path:url(#SVGID_5_);}
	.st4{clip-path:url(#SVGID_7_);}
	.st5{clip-path:url(#SVGID_9_);}
	.st6{clip-path:url(#SVGID_11_);}
</style>
<g>
	<g>
		<g>
			<defs>
				<path id="SVGID_1_" d="M229.8,105.7c0.3-0.2,0.8-0.2,1.1,0l16,9.2c0.3,0.1,0.4,0.5,0.3,0.7c-0.1,0.1-0.2,0.2-0.3,0.3l-66.4,38.3
					c-0.3,0.1-0.6,0.1-0.8-0.2c0-0.1-0.1-0.2-0.1-0.3V77c0-0.3,0.2-0.5,0.6-0.5c0.1,0,0.2,0,0.3,0.1l16,9.2c0.4,0.2,0.6,0.6,0.5,1
					v37.8L229.8,105.7z M116.8,170.9L84,189.8c-0.4,0.2-0.6,0.6-0.6,1v18.5c0,0.3,0.2,0.6,0.5,0.6c0.1,0,0.2,0,0.3-0.1l66.4-38.4
					c0.3-0.1,0.4-0.5,0.3-0.7c-0.1-0.1-0.2-0.2-0.3-0.3L84.2,132c-0.3-0.2-0.6-0.1-0.8,0.2c-0.1,0.1-0.1,0.2-0.1,0.3V151
					c0,0.4,0.2,0.8,0.6,1L116.8,170.9z M256.5,189.8l-32.8-18.9l32.8-18.9c0.4-0.2,0.6-0.6,0.6-1v-18.4c0-0.3-0.2-0.6-0.5-0.6
					c-0.1,0-0.2,0-0.3,0.1l-66.4,38.3c-0.3,0.1-0.4,0.5-0.3,0.7c0.1,0.1,0.2,0.2,0.3,0.3l66.4,38.4c0.3,0.2,0.6,0.1,0.8-0.2
					c0.1-0.1,0.1-0.2,0.1-0.3v-18.5C257.1,190.4,256.9,190,256.5,189.8L256.5,189.8z M160.9,153.7V77c0-0.3-0.3-0.6-0.6-0.5
					c-0.1,0-0.2,0-0.3,0.1l-16,9.2c-0.4,0.2-0.6,0.6-0.6,1v37.8l-32.8-18.9c-0.3-0.2-0.8-0.2-1.1,0l-16,9.2
					c-0.3,0.1-0.4,0.5-0.3,0.7c0.1,0.1,0.2,0.2,0.3,0.3l66.5,38.2c0.3,0.1,0.6,0,0.7-0.3C160.9,153.9,160.9,153.8,160.9,153.7z
					 M160.9,284.5v-96.4c0-0.3-0.3-0.6-0.6-0.5c-0.1,0-0.2,0-0.3,0.1l-66.4,38.4c-0.3,0.1-0.4,0.5-0.3,0.7c0.1,0.1,0.2,0.2,0.3,0.3
					l16,9.2c0.3,0.2,0.8,0.2,1.1,0l32.8-19v64.3c-60.9-14.8-98.3-76.2-83.4-137.1s76.2-98.3,137.1-83.4
					c60.9,14.8,98.3,76.2,83.4,137.1c-10.1,41.3-42.3,73.5-83.6,83.5v-64.5l32.7,18.9c0.3,0.2,0.8,0.2,1.1,0l16-9.2
					c0.3-0.1,0.4-0.5,0.3-0.7c-0.1-0.1-0.2-0.2-0.3-0.3l-66.4-38.3c-0.3-0.1-0.6-0.1-0.8,0.2c0,0.1-0.1,0.2-0.1,0.3v96.4
					c0,8,6.5,14.5,14.4,14.5c1,0,2-0.1,2.9-0.3l0,0c60.4-12.7,103.6-65.9,103.7-127.6c0-71.9-58.5-130.4-130.4-130.4l0,0
					c-72,0-130.4,58.4-130.4,130.4l0,0c0,62.7,44.5,115.3,103.6,127.6h0.2c7.8,1.6,15.3-3.5,16.9-11.2
					C160.8,286.4,160.9,285.4,160.9,284.5z"/>
			</defs>
			<clipPath id="SVGID_2_">
				<use xlink:href="#SVGID_1_"  style="overflow:visible;"/>
			</clipPath>
			<g class="st0">
				
					<linearGradient id="SVGID_3_" gradientUnits="userSpaceOnUse" x1="229.783" y1="-105.8281" x2="121.313" y2="-329.208" gradientTransform="matrix(1 0 0 1 0 398)">
					<stop  offset="0.22" style="stop-color:#006FFA"/>
					<stop  offset="0.37" style="stop-color:#0083F9"/>
					<stop  offset="0.79" style="stop-color:#00BBF8"/>
					<stop  offset="1" style="stop-color:#00D0F7"/>
				</linearGradient>
				<rect x="39.4" y="40" class="st1" width="261.8" height="259.3"/>
			</g>
		</g>
	</g>
	<polygon class="st2" points="461.2,103.9 354.3,103.9 345.3,124 394.1,124 394.1,236.6 417.3,236.6 417.3,124 461.2,124 	"/>
	<path class="st2" d="M496.7,133.8c-29.9,0-47.8,17.5-47.8,52.5c0,36.3,17.3,52.5,50.2,52.5c14.2,0,26-2.4,39.5-6.5v-19.5
		c-11.1,3.5-24.7,6.3-34.1,6.3c-19.9,0-31.5-7.4-31.7-26.7h67.7v-10.3C540.4,157,531.9,133.8,496.7,133.8z M472.3,176
		c0-13.5,7.8-24.3,23-24.3c18.6,0,21.8,13.3,21.9,24.3H472.3z"/>
	<g>
		<g>
			<defs>
				<path id="SVGID_4_" d="M496.7,133.8c-29.9,0-47.8,17.5-47.8,52.5c0,36.3,17.3,52.5,50.2,52.5c14.2,0,26-2.4,39.5-6.5v-19.5
					c-11.1,3.5-24.7,6.3-34.1,6.3c-19.9,0-31.5-7.4-31.7-26.7h67.7v-10.3C540.4,157,531.9,133.8,496.7,133.8z M472.3,176
					c0-13.5,7.8-24.3,23-24.3c18.6,0,21.8,13.3,21.9,24.3H472.3z"/>
			</defs>
			<clipPath id="SVGID_5_">
				<use xlink:href="#SVGID_4_"  style="overflow:visible;"/>
			</clipPath>
			<g class="st3">
				<path class="st2" d="M495.9,151.6c-15.3,0-23,10.9-23,24.3h45C517.6,164.9,514.5,151.6,495.9,151.6z"/>
			</g>
		</g>
	</g>
	<path class="st2" d="M557.8,186.3c0,41.5,26.7,52.5,51,52.5c10.7,0.1,21.4-1.5,31.7-4.6v-19.7c-9.1,2.9-18.6,4.5-28.2,4.6
		c-21.4,0-30.6-13.5-30.6-32.8c0-22.7,10.9-32.6,30.6-32.6c9.6,0.1,19.1,1.6,28.2,4.6v-19.9c-10.3-3.1-21-4.7-31.7-4.6
		C584.4,133.8,557.8,145,557.8,186.3z"/>
	<path class="st2" d="M822.1,103.9h-47v132.8h47c36.1,0,62.1-21.8,62.1-66.2S858.2,103.9,822.1,103.9z M819.5,216.6h-21.2V124h21.2
		c26.9,0,40.9,19.5,40.9,46.5S846.4,216.6,819.5,216.6z"/>
	<g>
		<g>
			<defs>
				<path id="SVGID_6_" d="M822.1,103.9h-47v132.8h47c36.1,0,62.1-21.8,62.1-66.2S858.2,103.9,822.1,103.9z M819.5,216.6h-21.2V124
					h21.2c26.9,0,40.9,19.5,40.9,46.5S846.4,216.6,819.5,216.6z"/>
			</defs>
			<clipPath id="SVGID_7_">
				<use xlink:href="#SVGID_6_"  style="overflow:visible;"/>
			</clipPath>
			<g class="st4">
				<path class="st2" d="M819.5,124h-21.2v92.6h21.2c26.9,0,40.9-19.2,40.9-46.1S846.4,124,819.5,124z"/>
			</g>
		</g>
	</g>
	<path class="st2" d="M948.5,133.8c-29.9,0-47.8,17.5-47.8,52.5c0,36.3,17.3,52.5,50.2,52.5c14.2,0,26-2.4,39.5-6.5v-19.5
		c-11.1,3.5-24.7,6.3-34.1,6.3c-19.9,0-31.5-7.4-31.7-26.7h67.7v-10.3C992.2,157,983.7,133.8,948.5,133.8z M924.2,176
		c0-13.5,7.7-24.3,23-24.3c18.6,0,21.8,13.3,22,24.3H924.2z"/>
	<g>
		<g>
			<defs>
				<path id="SVGID_8_" d="M948.5,133.8c-29.9,0-47.8,17.5-47.8,52.5c0,36.3,17.3,52.5,50.2,52.5c14.2,0,26-2.4,39.5-6.5v-19.5
					c-11.1,3.5-24.7,6.3-34.1,6.3c-19.9,0-31.5-7.4-31.7-26.7h67.7v-10.3C992.2,157,983.7,133.8,948.5,133.8z M924.2,176
					c0-13.5,7.7-24.3,23-24.3c18.6,0,21.8,13.3,22,24.3H924.2z"/>
			</defs>
			<clipPath id="SVGID_9_">
				<use xlink:href="#SVGID_8_"  style="overflow:visible;"/>
			</clipPath>
			<g class="st5">
				<path class="st2" d="M947.2,151.6c-15.3,0-23,10.9-23,24.3h45C969,164.9,965.9,151.6,947.2,151.6z"/>
			</g>
		</g>
	</g>
	<path class="st2" d="M1220.3,133.8c-27.7,0-50.5,15.3-50.5,52.5c0,37.4,22.9,52.5,50.5,52.5s50.7-15.5,50.7-52.5
		S1247.9,133.8,1220.3,133.8z M1220.5,219.5c-19.4,0-27.5-12.4-27.5-33.2c0-20.6,8.1-33,27.5-33c19.2,0,27.1,12.4,27.1,33
		C1247.6,207.1,1239.7,219.5,1220.5,219.5L1220.5,219.5z"/>
	<g>
		<g>
			<defs>
				<path id="SVGID_10_" d="M1220.3,133.8c-27.7,0-50.5,15.3-50.5,52.5c0,37.4,22.9,52.5,50.5,52.5s50.7-15.5,50.7-52.5
					S1247.9,133.8,1220.3,133.8z M1220.5,219.5c-19.4,0-27.5-12.4-27.5-33.2c0-20.6,8.1-33,27.5-33c19.2,0,27.1,12.4,27.1,33
					C1247.6,207.1,1239.7,219.5,1220.5,219.5L1220.5,219.5z"/>
			</defs>
			<clipPath id="SVGID_11_">
				<use xlink:href="#SVGID_10_"  style="overflow:visible;"/>
			</clipPath>
			<g class="st6">
				<path class="st2" d="M1220.5,153.3c-19.4,0-27.5,12.4-27.5,33c0,20.8,8.1,33.2,27.5,33.2c19.2,0,27.1-12.4,27.1-33.2
					C1247.6,165.7,1239.7,153.3,1220.5,153.3z"/>
			</g>
		</g>
	</g>
	<path class="st2" d="M1287.7,186.3c0,41.5,25.8,52.5,50.2,52.5c10.7,0.1,21.4-1.5,31.7-4.6v-19.7c-9.1,2.9-18.6,4.5-28.2,4.6
		c-21.4,0-30.6-13.5-30.6-32.8c0-22.7,10.9-32.6,30.6-32.6c9.6,0.1,19.1,1.6,28.2,4.6v-19.9c-10.3-3.1-21-4.7-31.7-4.6
		C1313.5,133.8,1287.7,145,1287.7,186.3z"/>
	<path class="st2" d="M1501.3,133.7h-31.9v18.9h26.5c16.4,0,21.9,6.3,21.9,15.5v9.3c-7.4-1.1-14.9-1.5-22.4-1.3
		c-22.4,1.1-35.1,11.3-35.1,30.7c0,21,12.7,32,41,32c26.6,0,37.7-5.4,39.2-5.7V172C1540.6,148.2,1525.8,133.7,1501.3,133.7z
		 M1517.9,219.4c0,0-4,1.8-16.7,1.6c-13-0.2-20-5.6-20-15c0-8.7,8.2-12.8,19.7-12.8c5.7,0,11.4,0.6,17,1.9V219.4z"/>
	<path class="st2" d="M1558.4,186.3c0,41.5,25.8,52.5,50.2,52.5c10.7,0.1,21.4-1.5,31.7-4.6v-19.7c-9.1,2.9-18.6,4.5-28.2,4.6
		c-21.4,0-30.6-13.5-30.6-32.8c0-22.7,10.9-32.6,30.6-32.6c9.6,0.1,19.1,1.6,28.2,4.6v-19.9c-10.3-3.1-21-4.7-31.7-4.6
		C1584.2,133.8,1558.4,145,1558.4,186.3z"/>
	<polygon class="st2" points="1706.1,224.6 1677.8,135.8 1653.4,135.8 1685.6,236.7 1702.3,236.7 1690,275.2 1714.5,275.2 
		1758.9,135.8 1734.5,135.8 	"/>
	<path class="st2" d="M1454.2,133.7v18.9h-12.1c-12,0-23.7,4.8-27.1,20.9v63.1h-22.7V135.4h22.7v12.7c4.9-13.1,17-14.5,28.2-14.5h11
		V133.7z"/>
	<path class="st2" d="M1071.1,236.7v-64.5c0-12.3-5.8-18.3-16.1-18.3c-6.9,0-12.5,2.2-18.2,6.9v75.9h-23.2V135.4h21.5v8.8
		c9-7.5,17.8-10.5,28-10.5c11.3,0,19.6,4.1,24.8,12.3c8.2-6.9,18.4-12.3,31.5-12.3c15.9,0,32.4,8.2,32.4,36.5v66.5h-23.2v-63.9
		c0-10.7-4.4-19.1-16.1-19.1c-7,0.1-13.7,2.8-18.8,7.7c0.4,3.7,0.6,7.3,0.6,11v64.3H1071.1z"/>
	<path class="st2" d="M686.2,236.7h-23.3V106.1L686.2,95v47.7c8.5-5.7,18.5-8.8,28.7-8.8c14.6,0,32.1,7.3,32.1,38.1v64.8h-23.2
		v-62.6c0-12.9-5.6-20.2-16.7-20.2c-9,0-15.4,3.1-20.8,6.7L686.2,236.7L686.2,236.7z"/>
</g>
</svg>
